<svg width="76" height="82" viewBox="0 0 76 82" fill="none" xmlns="http://www.w3.org/2000/svg">
<path fill-rule="evenodd" clip-rule="evenodd" d="M22.3676 65.2885C11.8485 56.7712 3.12765 45.3465 0.454828 32.0986C-0.178812 28.9596 -0.392132 25.4392 1.45032 22.8178C3.8245 19.4408 8.70637 18.8917 12.7365 19.8182C24.4581 22.5121 31.722 33.884 37.7211 44.2828C37.2533 36.7638 36.7927 29.1392 38.3113 21.7596C39.8298 14.3801 43.589 7.1463 49.9254 3.04444C56.2618 -1.05741 65.4053 -1.23705 70.9556 3.87332C77.638 10.0245 76.9333 20.9583 73.1662 29.214C68.6817 39.0393 60.8679 46.9696 55.6013 56.4008C53.3622 60.4113 51.6762 64.8551 50.9935 69.4013C50.3915 73.4197 52.0775 78.6987 50.3457 82C40.5124 78.7302 30.3876 71.7887 22.3676 65.2885Z" fill="#FF61AD"/>
</svg>
